:SAMPLES-PER-SECOND 30
:FULLY-SPECIFIED
:DEGREES
87
root  -60.2511 36.6352 2.96951 -25.3409 -79.5663 13.7215
RightUpLeg  -25.659 -25.2249 -4.60412
RightLeg  38.891 6.25992 5.10159
RightFoot  -0.876557 0.545266 -6.00748
RightToes  5.82063e-011 0 -3.6325e-017
Spine  61.4325 -10.8011 11.233
Spine1  3.47322 -5.897 2.38388
HEad  -18.5836 -10.0944 -3.44971
LeftShoulder1  1.77853 -2.7577 -22.074
LeftArm  -6.0518 -45.646 -49.3963
LeftForeArm  17.7662 -14.5151 -5.03911
LeftHand  -0.0319896 2.37692 0.711265
RightShoulder  0.672221 -0.617643 16.786
RightArm  7.58988 38.9375 55.0467
RightForeArm  11.9951 -0.307115 5.04256
RightHand  -0.240747 1.0482 -4.43708
LeftUpLeg  -31.4655 3.59426 -5.55133
LeftLeg  63.0219 -1.57414 -2.74803
LeftFoot  -3.04633 -0.0532883 0.965078
LeftToes  1.81573e-012 2.54609e-010 -3.45981e-011
88
root  -60.8075 36.8007 3.01411 -26.8245 -79.4143 16.2991
RightUpLeg  -26.0246 -25.3252 -4.95992
RightLeg  39.2623 6.30954 5.21406
RightFoot  -1.62041 0.50055 -6.00772
RightToes  5.82063e-011 0 -3.6325e-017
Spine  65.4834 -11.5405 11.6675
Spine1  3.02457 -5.89161 2.50589
HEad  -22.5787 -11.2632 -2.22005
LeftShoulder1  2.00221 -3.93651 -20.4818
LeftArm  -7.24758 -50.381 -49.9749
LeftForeArm  17.8942 -11.0024 -5.29602
LeftHand  -0.00983318 2.8365 -0.239267
RightShoulder  0.756363 0.150073 13.8097
RightArm  4.9364 44.2785 53.9577
RightForeArm  8.31446 -0.227516 4.0424
RightHand  -0.319395 1.62771 -5.39947
LeftUpLeg  -31.9646 1.56248 -5.6334
LeftLeg  50.2802 -2.70694 -3.06199
LeftFoot  -3.59457 0.0175764 0.0899947
LeftToes  1.81573e-012 2.54609e-010 -3.45981e-011
89
root  -61.3948 36.8248 3.10092 -28.1648 -80.218 19.0659
RightUpLeg  -27.3915 -24.8789 -4.62239
RightLeg  40.4652 6.45408 5.57692
RightFoot  -2.49477 0.475624 -6.35457
RightToes  5.82063e-011 0 -3.6325e-017
Spine  69.0839 -11.8812 11.7669
Spine1  2.78996 -5.45927 2.087
HEad  -25.441 -12.1951 -2.0608
LeftShoulder1  2.12832 -4.87891 -18.8517
LeftArm  -7.69017 -55.0285 -49.4656
LeftForeArm  17.9802 -8.97133 -5.27059
LeftHand  -0.0241222 2.82701 0.402831
RightShoulder  0.813615 0.944876 11.2552
RightArm  3.43143 50.093 50.9847
RightForeArm  3.40398 -0.343459 3.99651
RightHand  -0.451464 2.73648 -6.69061
LeftUpLeg  -31.3682 0.254104 -4.9222
LeftLeg  37.2655 -3.8946 -2.82595
LeftFoot  -2.27578 0.232427 -2.65418
LeftToes  1.81573e-012 2.54609e-010 -3.45981e-011
90
root  -61.9707 36.5256 3.33582 -22.9772 -80.7464 16.567
RightUpLeg  -31.3791 -25.1217 -3.13835
RightLeg  43.6139 6.22407 6.00107
RightFoot  -4.04494 0.389769 -6.53482
RightToes  5.82063e-011 0 -3.6325e-017
Spine  70.5524 -12.9989 13.2068
Spine1  2.17256 -5.21738 1.42694
HEad  -28.1231 -12.6126 -1.58412
LeftShoulder1  2.24012 -6.03746 -16.8353
LeftArm  -8.90273 -58.137 -49.2929
LeftForeArm  18.2127 -9.03414 -4.49591
LeftHand  -0.0476389 2.33489 1.38678
RightShoulder  0.983213 2.47933 9.00934
RightArm  -0.0709377 55.5775 44.2546
RightForeArm  1.648 -0.865034 3.83619
RightHand  -0.43715 3.25553 -6.10421
LeftUpLeg  -32.8112 -1.90246 -3.82237
LeftLeg  29.5837 -5.31385 -2.92216
LeftFoot  0.55269 0.472975 -5.04595
LeftToes  1.81573e-012 2.54609e-010 -3.45981e-011
91
root  -62.5282 36.2603 3.55296 -22.3103 -81.7091 16.6127
RightUpLeg  -32.9398 -24.1763 -2.88956
RightLeg  46.5186 5.77089 6.14763
RightFoot  -5.38451 0.311894 -6.6679
RightToes  5.82063e-011 0 -3.6325e-017
Spine  73.8401 -14.2095 13.572
Spine1  1.4759 -4.73231 -0.75393
HEad  -30.1959 -13.1151 -1.02841
LeftShoulder1  2.24209 -7.21451 -13.9603
LeftArm  -10.3132 -60.4187 -49.2315
LeftForeArm  17.282 -9.32199 -3.56113
LeftHand  -0.0585364 1.13724 1.44704
RightShoulder  1.08669 3.42463 8.23934
RightArm  -5.48556 59.7664 36.9228
RightForeArm  1.28013 -0.882032 3.2983
RightHand  -0.407311 2.9879 -5.86238
LeftUpLeg  -33.2836 -0.955247 -4.20598
LeftLeg  29.026 -7.40919 -4.1273
LeftFoot  7.76151 -0.181303 0.928703
LeftToes  1.81573e-012 2.54609e-010 -3.45981e-011
92
root  -63.0539 36.0814 3.72948 -28.3156 -82.2716 21.2669
RightUpLeg  -31.7096 -22.6925 -4.5121
RightLeg  49.0252 5.15157 5.97202
RightFoot  -6.93579 0.197871 -6.36632
RightToes  5.82063e-011 0 -3.6325e-017
Spine  79.9138 -14.7622 12.1192
Spine1  -0.0388683 -4.72751 -0.943529
HEad  -31.6203 -13.0811 -1.12421
LeftShoulder1  2.08277 -7.2939 -12.1855
LeftArm  -11.9323 -62.5921 -49.1799
LeftForeArm  16.5478 -10.7818 -2.64223
LeftHand  -0.0395358 2.18554 1.03725
RightShoulder  1.12144 4.51812 6.28297
RightArm  -12.9723 62.895 28.8764
RightForeArm  0.38293 -0.932537 2.2684
RightHand  -0.382542 3.01019 -5.47595
LeftUpLeg  -32.9834 1.74888 -5.64581
LeftLeg  33.0137 -8.09193 -5.27961
LeftFoot  7.60904 -1.19896 6.91349
LeftToes  1.81573e-012 2.54609e-010 -3.45981e-011
93
root  -63.5686 35.8172 3.93222 -28.684 -81.8887 19.6314
RightUpLeg  -29.7925 -22.5547 -6.04904
RightLeg  51.9498 4.53975 5.81967
RightFoot  -8.64438 0.0858422 -6.06018
RightToes  5.82063e-011 0 -3.6325e-017
Spine  85.9297 -16.4082 12.2924
Spine1  -2.77443 -5.08171 -0.126174
HEad  -32.7087 -14.1254 -1.19853
LeftShoulder1  2.21724 -8.76615 -10.9287
LeftArm  -14.8372 -64.7052 -47.1638
LeftForeArm  14.4989 -11.7416 -1.73568
LeftHand  -0.0231165 2.24368 0.400103
RightShoulder  1.31489 5.71935 6.67565
RightArm  -22.5674 65.1139 13.6534
RightForeArm  -5.7417 -1.58724 2.6862
RightHand  -0.497631 4.30384 -6.20633
LeftUpLeg  -32.0098 1.33539 -5.71903
LeftLeg  36.74 -7.48317 -5.60118
LeftFoot  5.90556 -1.14058 7.28926
LeftToes  1.81573e-012 2.54609e-010 -3.45981e-011
